<svg id="svg" version="1.1" xmlns="http://www.w3.org/2000/svg" xmlns:xlink="http://www.w3.org/1999/xlink" width="400" height="400" viewBox="0, 0, 400,400"><g id="svgg"><path id="path0" d="M228.125 22.661 C 227.588 22.809,226.126 23.399,224.876 23.972 C 223.626 24.545,222.412 24.895,222.179 24.751 C 221.945 24.607,221.864 24.667,221.999 24.885 C 222.291 25.357,219.208 26.650,218.636 26.297 C 218.417 26.162,218.344 26.222,218.473 26.431 C 218.773 26.916,214.547 29.010,213.978 28.658 C 213.734 28.508,213.662 28.574,213.810 28.814 C 213.961 29.059,213.538 29.411,212.797 29.659 C 212.096 29.892,209.267 31.314,206.510 32.818 C 203.752 34.321,201.308 35.436,201.078 35.294 C 200.812 35.129,200.777 35.223,200.980 35.553 C 201.220 35.941,201.116 36.000,200.564 35.788 C 200.160 35.633,199.947 35.625,200.093 35.770 C 200.593 36.270,195.085 39.590,194.404 39.200 C 194.152 39.055,194.064 39.069,194.208 39.230 C 194.353 39.391,191.452 41.555,187.763 44.038 C 178.981 49.948,173.497 53.811,172.172 55.021 C 171.009 56.082,170.926 56.073,170.543 54.826 C 170.384 54.308,170.507 53.768,170.865 53.409 C 171.360 52.914,171.366 52.723,170.908 52.098 C 170.206 51.144,168.842 51.872,165.395 55.040 C 159.961 60.035,157.155 62.095,158.024 60.449 C 158.166 60.181,157.811 60.534,157.235 61.234 C 156.659 61.935,156.021 62.405,155.818 62.279 C 155.615 62.154,155.498 62.273,155.557 62.545 C 155.616 62.816,154.809 63.620,153.764 64.331 C 152.720 65.043,151.989 65.625,152.141 65.625 C 152.293 65.625,151.675 66.245,150.768 67.003 C 149.861 67.761,148.777 68.816,148.359 69.347 C 147.941 69.878,147.359 70.313,147.065 70.313 C 146.771 70.313,146.405 70.515,146.252 70.763 C 146.068 71.061,146.160 71.116,146.522 70.925 C 146.823 70.766,146.642 70.984,146.118 71.410 C 145.594 71.836,144.891 72.082,144.555 71.957 C 144.039 71.764,144.024 71.826,144.456 72.357 C 144.899 72.902,144.860 72.958,144.163 72.775 C 143.688 72.651,143.359 72.753,143.359 73.024 C 143.359 73.277,143.156 73.358,142.908 73.205 C 142.660 73.052,142.561 73.095,142.689 73.300 C 142.952 73.727,140.735 76.287,139.787 76.651 C 139.029 76.941,138.994 75.755,139.746 75.274 C 140.015 75.102,140.234 74.652,140.234 74.274 C 140.234 73.896,140.492 73.246,140.808 72.829 C 141.123 72.412,141.387 71.851,141.394 71.582 C 141.420 70.539,140.372 71.178,139.152 72.950 C 138.449 73.970,136.633 76.123,135.116 77.734 C 133.600 79.346,132.242 80.867,132.098 81.114 C 131.359 82.384,128.366 85.500,128.063 85.313 C 127.872 85.195,127.757 85.243,127.808 85.420 C 127.943 85.889,126.927 87.643,126.310 88.008 C 126.019 88.179,125.781 88.575,125.781 88.887 C 125.781 89.198,125.636 89.453,125.459 89.453 C 125.282 89.453,124.447 90.423,123.603 91.609 C 122.760 92.795,121.499 94.421,120.801 95.222 C 120.103 96.024,119.532 96.802,119.532 96.950 C 119.531 97.099,118.549 98.379,117.349 99.794 C 115.324 102.180,114.436 103.390,110.675 108.879 C 109.905 110.002,109.138 110.837,108.971 110.734 C 108.803 110.630,108.759 110.898,108.871 111.328 C 108.985 111.765,108.883 112.109,108.639 112.109 C 108.399 112.109,108.203 112.313,108.203 112.561 C 108.203 112.809,107.720 113.642,107.129 114.413 C 106.538 115.183,105.823 116.254,105.540 116.793 C 100.560 126.282,95.501 138.275,94.334 143.359 C 94.260 143.682,93.949 144.648,93.643 145.508 C 93.336 146.367,93.162 147.290,93.255 147.559 C 93.348 147.827,93.269 148.047,93.079 148.047 C 92.890 148.047,92.726 148.442,92.715 148.926 C 92.704 149.409,92.591 150.332,92.464 150.977 C 92.337 151.621,92.037 153.203,91.799 154.492 C 91.560 155.781,91.298 157.188,91.215 157.617 C 90.595 160.831,90.433 162.021,90.033 166.309 C 89.867 168.081,89.625 169.531,89.495 169.531 C 89.364 169.530,89.318 170.606,89.392 171.920 C 89.467 173.235,89.379 174.218,89.197 174.105 C 89.016 173.992,88.924 175.378,88.994 177.184 C 89.063 178.991,88.975 180.469,88.798 180.468 C 87.695 180.467,89.711 207.223,90.961 209.180 C 91.329 209.755,91.702 205.053,91.382 203.875 C 90.718 201.430,91.623 171.528,92.384 170.767 C 92.491 170.660,92.578 170.851,92.578 171.191 C 92.578 171.532,92.798 171.883,93.066 171.973 C 93.597 172.149,93.558 182.029,93.026 182.417 C 92.875 182.527,92.786 183.145,92.828 183.789 C 93.067 187.452,93.058 200.711,92.817 201.101 C 92.660 201.355,92.733 201.563,92.978 201.563 C 93.224 201.563,93.348 201.782,93.254 202.051 C 93.160 202.319,92.750 202.486,92.342 202.421 C 91.866 202.344,92.034 202.574,92.813 203.063 C 94.016 203.819,94.955 206.499,94.198 207.015 C 93.693 207.360,93.352 208.594,93.762 208.594 C 93.970 208.594,94.141 208.330,94.141 208.008 C 94.141 207.686,94.316 207.422,94.531 207.422 C 94.746 207.422,94.922 207.759,94.922 208.172 C 94.922 208.584,95.196 209.990,95.531 211.297 C 95.865 212.604,96.031 213.848,95.898 214.063 C 95.766 214.278,95.864 214.453,96.116 214.453 C 96.383 214.453,96.490 214.780,96.371 215.235 C 96.259 215.665,96.309 215.929,96.483 215.821 C 97.022 215.488,97.607 217.754,97.196 218.584 C 96.842 219.300,96.852 219.302,97.398 218.629 C 97.806 218.127,98.054 218.054,98.255 218.380 C 98.410 218.631,98.295 219.005,97.999 219.210 C 97.611 219.478,97.695 219.517,98.299 219.348 C 99.129 219.116,100.722 222.194,100.096 222.821 C 99.972 222.945,100.056 223.047,100.283 223.047 C 100.777 223.047,102.056 226.080,101.763 226.555 C 101.650 226.737,101.697 226.945,101.868 227.017 C 102.392 227.239,107.759 238.593,107.484 238.900 C 107.343 239.058,107.446 239.061,107.715 238.907 C 107.983 238.752,108.203 238.773,108.203 238.952 C 108.203 239.449,111.264 243.425,112.498 244.531 C 113.781 245.681,118.098 251.929,118.099 252.637 C 118.099 252.905,118.181 253.043,118.282 252.942 C 118.578 252.646,121.424 256.803,121.188 257.189 C 121.070 257.384,121.138 257.441,121.339 257.316 C 121.654 257.122,123.633 259.531,123.633 260.110 C 123.633 260.223,123.984 260.683,124.414 261.132 C 125.528 262.295,131.580 270.070,133.206 272.428 C 135.314 275.482,137.940 278.989,138.985 280.144 C 139.548 280.765,139.809 281.382,139.631 281.669 C 139.446 281.967,139.493 282.052,139.754 281.892 C 139.985 281.749,140.566 282.181,141.044 282.852 C 141.825 283.949,143.850 285.156,144.909 285.156 C 146.254 285.156,145.198 280.715,143.750 280.282 C 142.491 279.906,140.581 278.122,140.895 277.614 C 141.028 277.399,140.949 277.339,140.720 277.480 C 140.219 277.790,137.736 273.932,137.799 272.941 C 137.824 272.560,137.713 272.330,137.553 272.428 C 137.393 272.527,137.067 272.091,136.829 271.460 C 136.303 270.067,136.978 269.870,138.086 271.094 C 138.475 271.523,138.656 271.875,138.489 271.875 C 138.322 271.875,138.404 272.139,138.672 272.461 C 139.008 272.866,139.023 273.047,138.720 273.047 C 138.479 273.047,138.281 273.244,138.281 273.485 C 138.281 273.801,138.424 273.806,138.790 273.502 C 139.569 272.855,141.116 273.400,140.896 274.243 C 140.774 274.710,140.887 274.875,141.235 274.741 C 141.522 274.631,141.986 274.730,142.265 274.960 C 145.407 277.549,145.946 277.792,146.331 276.788 C 146.449 276.483,146.338 275.846,146.085 275.374 C 145.770 274.786,145.762 274.599,146.058 274.782 C 146.295 274.929,146.590 274.789,146.712 274.471 C 146.980 273.772,148.609 274.410,151.805 276.465 C 152.891 277.163,153.894 277.734,154.034 277.734 C 154.282 277.734,155.306 278.504,156.634 279.688 C 156.996 280.010,157.541 280.339,157.845 280.419 C 158.149 280.499,158.662 280.637,158.984 280.726 C 159.307 280.815,160.032 280.455,160.595 279.927 L 161.620 278.966 164.306 280.757 C 165.784 281.742,167.121 282.740,167.279 282.973 C 167.437 283.207,167.569 283.274,167.572 283.123 C 167.575 282.971,168.677 283.454,170.020 284.197 C 173.142 285.925,179.230 288.889,180.371 289.238 C 180.854 289.385,181.250 289.626,181.250 289.772 C 181.250 290.150,183.864 290.095,184.250 289.708 C 184.426 289.532,184.395 289.423,184.180 289.467 C 183.250 289.654,183.107 289.410,183.812 288.835 C 184.459 288.308,184.470 288.249,183.887 288.432 C 183.511 288.551,183.203 288.467,183.203 288.246 C 183.203 288.025,183.038 287.946,182.837 288.071 C 182.635 288.196,182.296 287.986,182.083 287.606 C 181.870 287.225,181.595 286.958,181.473 287.012 C 180.895 287.265,180.469 287.055,180.469 286.519 C 180.469 286.057,180.808 286.142,182.023 286.909 C 182.879 287.449,183.712 287.891,183.875 287.891 C 184.792 287.891,187.498 289.347,187.505 289.844 C 187.509 290.199,187.625 290.271,187.799 290.027 C 188.557 288.965,194.598 285.663,193.993 286.642 C 193.533 287.386,182.477 294.712,176.758 298.063 C 175.254 298.944,173.408 300.029,172.656 300.473 C 171.904 300.917,170.111 301.974,168.670 302.822 C 167.176 303.703,165.850 304.241,165.582 304.075 C 165.276 303.886,165.216 303.951,165.409 304.263 C 165.596 304.567,165.405 304.818,164.883 304.955 C 164.432 305.073,164.063 305.335,164.063 305.537 C 164.063 305.740,163.887 305.797,163.672 305.664 C 163.457 305.531,163.281 305.587,163.281 305.788 C 163.281 305.990,162.271 306.659,161.035 307.276 C 159.800 307.893,158.730 308.531,158.658 308.694 C 158.586 308.856,158.366 308.890,158.170 308.768 C 157.973 308.647,157.813 308.701,157.813 308.889 C 157.812 309.323,154.690 311.098,154.682 310.670 C 154.678 310.495,154.546 310.542,154.389 310.776 C 153.497 312.092,128.034 324.841,127.256 324.360 C 127.023 324.216,126.939 324.271,127.070 324.482 C 127.201 324.694,126.070 325.465,124.558 326.197 C 121.263 327.791,120.775 328.338,122.961 327.989 C 124.774 327.699,137.666 322.654,140.039 321.306 C 140.898 320.817,142.305 320.193,143.164 319.919 C 144.023 319.644,146.197 318.744,147.994 317.918 C 149.791 317.091,151.417 316.512,151.607 316.629 C 151.797 316.747,151.953 316.695,151.953 316.514 C 151.953 316.005,154.147 314.828,154.500 315.147 C 154.672 315.302,154.697 315.227,154.555 314.979 C 154.257 314.457,156.508 313.544,157.136 313.932 C 157.391 314.089,157.423 313.990,157.223 313.666 C 156.993 313.294,157.079 313.216,157.528 313.388 C 157.871 313.520,158.208 313.500,158.276 313.344 C 158.378 313.108,165.013 309.719,165.625 309.591 C 165.732 309.568,166.260 309.276,166.797 308.941 C 169.122 307.491,173.572 305.078,173.921 305.078 C 174.130 305.078,175.077 304.554,176.026 303.914 C 176.975 303.273,178.671 302.310,179.794 301.773 C 180.917 301.236,182.451 300.408,183.203 299.934 C 183.955 299.459,187.288 297.425,190.610 295.414 C 193.931 293.402,197.711 290.969,199.008 290.006 C 205.780 284.980,212.861 280.171,213.149 280.402 C 213.329 280.546,213.353 280.511,213.202 280.324 C 213.051 280.137,214.808 278.533,217.108 276.760 C 227.530 268.723,243.837 252.991,262.604 232.871 L 265.638 229.618 265.512 252.016 L 265.385 274.414 264.077 278.125 C 262.722 281.968,260.725 285.312,260.039 284.888 C 259.822 284.754,259.761 284.832,259.902 285.061 C 260.335 285.762,249.459 298.322,243.110 304.453 C 242.865 304.690,241.168 306.343,239.338 308.128 C 237.508 309.912,235.937 311.231,235.847 311.057 C 235.506 310.402,235.761 308.793,236.193 308.874 C 236.442 308.921,236.747 308.692,236.873 308.366 C 237.025 307.967,236.941 307.865,236.617 308.055 C 236.351 308.210,236.452 307.973,236.842 307.528 C 237.304 307.000,237.406 306.629,237.135 306.461 C 236.906 306.320,236.719 306.385,236.719 306.605 C 236.719 306.826,236.442 306.900,236.104 306.771 C 235.689 306.612,235.530 306.726,235.615 307.121 C 235.765 307.814,231.890 311.433,231.436 311.023 C 231.265 310.869,231.239 310.942,231.378 311.186 C 231.619 311.608,231.000 312.396,230.371 312.467 C 230.210 312.485,230.122 312.561,230.176 312.635 C 230.415 312.967,229.166 314.028,228.802 313.803 C 228.566 313.657,228.512 313.740,228.673 314.000 C 228.838 314.268,228.552 314.631,227.964 314.899 C 227.421 315.146,227.056 315.475,227.151 315.630 C 227.455 316.120,225.862 317.282,225.318 316.968 C 225.035 316.805,224.920 316.801,225.062 316.959 C 225.433 317.373,221.384 321.126,220.801 320.909 C 220.507 320.800,220.313 321.057,220.313 321.554 C 220.313 322.338,220.265 322.328,219.355 321.347 L 218.398 320.314 217.251 321.541 C 216.620 322.216,215.891 323.490,215.631 324.373 C 214.984 326.569,214.692 327.084,213.829 327.547 C 211.973 328.543,209.466 330.290,208.356 331.362 C 207.688 332.007,207.061 332.465,206.963 332.380 C 206.865 332.296,206.356 332.670,205.834 333.211 C 205.311 333.753,204.180 334.676,203.320 335.262 C 202.461 335.848,200.703 337.200,199.414 338.268 C 198.125 339.335,196.893 340.214,196.676 340.222 C 196.459 340.229,196.051 340.603,195.770 341.054 C 195.489 341.504,195.164 341.779,195.048 341.663 C 194.830 341.444,194.239 341.860,192.950 343.140 C 192.531 343.557,192.188 343.786,192.188 343.650 C 192.188 343.515,191.626 343.916,190.940 344.543 C 190.254 345.169,189.611 345.600,189.510 345.500 C 189.410 345.400,189.080 345.671,188.778 346.103 C 188.475 346.535,188.064 346.787,187.864 346.663 C 187.664 346.539,187.500 346.618,187.500 346.837 C 187.500 347.291,182.773 350.619,182.324 350.481 C 182.163 350.431,182.031 350.555,182.031 350.755 C 182.031 351.967,164.277 363.450,150.586 371.093 C 148.008 372.532,144.756 374.398,143.359 375.239 C 141.963 376.081,140.310 377.030,139.685 377.349 C 138.903 377.749,138.742 377.967,139.166 378.050 C 139.919 378.197,144.510 376.275,148.374 374.195 C 149.950 373.346,151.427 372.768,151.657 372.910 C 151.887 373.052,151.961 372.985,151.822 372.759 C 151.683 372.535,152.186 372.059,152.940 371.701 C 153.694 371.343,156.089 370.097,158.262 368.933 C 160.435 367.768,162.392 366.926,162.612 367.061 C 162.832 367.197,162.908 367.141,162.781 366.936 C 162.655 366.731,164.166 365.712,166.139 364.670 C 168.112 363.629,171.475 361.806,173.612 360.620 C 175.749 359.434,177.726 358.464,178.007 358.464 C 178.287 358.464,178.429 358.377,178.323 358.271 C 178.134 358.082,182.223 355.469,182.707 355.469 C 182.843 355.469,184.047 354.756,185.384 353.885 C 186.722 353.014,188.177 352.274,188.618 352.240 C 189.059 352.207,189.338 352.098,189.238 351.999 C 188.915 351.675,193.053 349.616,193.506 349.875 C 193.748 350.012,193.815 349.981,193.655 349.805 C 193.253 349.361,194.818 348.327,195.374 348.671 C 195.621 348.824,195.720 348.780,195.592 348.574 C 195.465 348.368,196.888 347.418,198.754 346.463 C 200.621 345.508,202.207 344.594,202.279 344.431 C 202.352 344.269,202.571 344.235,202.768 344.357 C 202.964 344.478,203.125 344.408,203.125 344.202 C 203.125 343.995,203.608 343.636,204.199 343.403 C 204.790 343.170,205.537 342.813,205.859 342.609 C 206.182 342.405,207.500 341.632,208.789 340.892 C 214.249 337.754,218.983 335.009,222.504 332.939 C 224.571 331.724,226.498 330.729,226.786 330.729 C 227.074 330.729,227.241 330.619,227.158 330.485 C 227.023 330.266,231.337 327.734,231.844 327.734 C 231.957 327.734,231.762 328.172,231.412 328.708 C 231.061 329.243,230.573 329.566,230.328 329.426 C 230.083 329.286,230.007 329.309,230.159 329.478 C 230.550 329.912,228.515 332.467,228.021 332.162 C 227.797 332.024,227.725 332.091,227.862 332.312 C 227.999 332.533,227.718 333.140,227.239 333.660 C 226.759 334.181,225.576 335.555,224.609 336.714 C 223.643 337.874,222.391 339.272,221.827 339.821 C 221.264 340.371,220.737 341.025,220.655 341.276 C 220.336 342.261,211.178 351.908,210.778 351.680 C 210.543 351.546,210.479 351.579,210.636 351.751 C 210.792 351.924,210.399 352.659,209.762 353.384 C 208.620 354.684,207.897 356.465,208.334 356.901 C 208.457 357.025,211.130 354.687,214.275 351.707 C 217.419 348.727,220.233 346.312,220.527 346.341 C 220.822 346.369,221.042 346.281,221.016 346.145 C 220.990 346.010,223.137 343.701,225.786 341.016 C 228.436 338.330,230.491 336.440,230.353 336.816 C 229.858 338.168,230.916 337.448,233.792 334.477 C 235.402 332.815,236.719 331.577,236.719 331.727 C 236.719 331.877,237.889 330.733,239.319 329.184 C 240.749 327.635,242.112 326.191,242.346 325.977 C 242.581 325.762,244.355 323.920,246.289 321.884 C 248.223 319.848,249.980 318.178,250.195 318.173 C 250.410 318.168,250.586 317.955,250.586 317.701 C 250.586 317.446,253.153 314.545,256.291 311.255 C 259.428 307.965,263.540 303.604,265.429 301.563 C 267.317 299.521,269.789 296.943,270.921 295.833 C 272.054 294.722,272.903 293.736,272.808 293.641 C 272.713 293.547,273.343 292.830,274.208 292.048 C 275.073 291.266,275.781 290.479,275.781 290.298 C 275.781 290.117,276.484 289.319,277.344 288.524 C 278.203 287.728,278.909 286.953,278.912 286.801 C 278.915 286.648,280.139 285.217,281.632 283.619 C 283.125 282.022,284.440 280.473,284.553 280.177 C 284.667 279.880,284.941 279.750,285.163 279.887 C 285.385 280.024,285.523 279.991,285.470 279.814 C 285.309 279.280,286.777 277.334,287.162 277.571 C 287.358 277.693,287.474 277.648,287.418 277.470 C 287.269 276.997,291.205 272.122,292.887 270.699 C 293.684 270.024,294.086 269.602,293.780 269.762 C 293.475 269.921,293.885 269.187,294.691 268.131 C 295.497 267.075,296.363 266.211,296.614 266.211 C 296.865 266.211,297.070 266.000,297.070 265.742 C 297.070 265.484,297.290 265.054,297.559 264.785 C 298.289 264.054,298.156 263.328,297.048 262.012 C 296.376 261.213,296.179 260.696,296.444 260.431 C 296.704 260.171,296.708 259.793,296.456 259.322 C 296.246 258.929,296.154 257.945,296.252 257.136 C 296.350 256.326,296.455 252.038,296.485 247.605 L 296.540 239.546 297.613 238.518 C 298.204 237.952,298.845 237.623,299.038 237.787 C 299.231 237.952,299.190 237.822,298.948 237.500 C 298.706 237.178,298.383 236.251,298.232 235.440 C 298.080 234.629,297.602 233.717,297.170 233.414 C 296.617 233.027,296.440 232.569,296.573 231.873 C 296.678 231.325,296.602 230.982,296.403 231.105 C 296.187 231.239,296.108 224.088,296.205 213.027 C 296.395 191.264,296.529 186.719,296.981 186.719 C 298.032 186.719,298.630 182.598,298.030 179.492 C 297.988 179.277,297.975 178.970,298.001 178.809 C 298.026 178.647,297.871 178.516,297.656 178.516 C 297.441 178.516,297.263 178.120,297.260 177.637 C 297.255 177.021,297.157 176.911,296.930 177.268 C 296.732 177.581,296.594 177.053,296.573 175.900 C 296.523 173.095,296.051 163.925,295.934 163.477 C 295.878 163.262,297.342 162.324,299.186 161.392 C 301.030 160.460,302.817 159.449,303.156 159.146 C 303.495 158.842,303.892 158.594,304.038 158.594 C 304.795 158.594,317.492 148.887,320.936 145.676 C 323.212 143.553,322.713 142.515,319.850 143.416 C 318.359 143.885,311.199 143.958,310.477 143.511 C 310.211 143.347,309.239 143.259,308.317 143.315 C 307.347 143.375,306.641 143.247,306.641 143.011 C 306.641 142.786,306.377 142.704,306.055 142.827 C 305.732 142.951,305.469 142.902,305.469 142.718 C 305.469 141.782,286.399 142.996,273.777 144.735 C 247.427 148.364,243.364 148.665,222.559 148.528 C 209.142 148.439,206.641 148.508,206.641 148.968 C 206.641 149.636,207.530 150.413,208.477 150.572 C 208.863 150.637,209.142 150.868,209.095 151.086 C 209.049 151.304,209.317 151.402,209.691 151.305 C 210.065 151.207,210.894 151.400,211.533 151.733 C 212.172 152.066,212.968 152.340,213.301 152.341 C 213.634 152.343,214.073 152.498,214.277 152.686 C 214.481 152.875,215.584 153.333,216.728 153.704 C 220.957 155.076,236.328 170.066,236.328 172.817 C 236.328 172.942,236.943 173.901,237.695 174.948 C 238.447 175.995,239.063 176.953,239.063 177.078 C 239.063 177.203,239.840 178.940,240.789 180.938 C 243.992 187.674,244.113 188.162,244.701 196.680 C 245.951 214.797,244.284 227.277,239.255 237.453 C 238.504 238.971,237.891 240.364,237.891 240.550 C 237.891 244.410,221.378 262.125,219.095 260.714 C 218.825 260.547,218.732 260.592,218.873 260.821 C 219.472 261.790,202.552 262.067,196.672 261.184 C 189.417 260.094,179.392 254.116,173.177 247.173 C 167.985 241.373,161.288 228.988,162.385 227.215 C 162.516 227.002,162.420 226.956,162.170 227.111 C 160.281 228.278,162.848 225.246,169.238 218.760 C 185.531 202.225,193.012 193.780,194.847 189.850 L 195.853 187.695 195.745 173.834 C 195.685 166.210,195.553 159.838,195.451 159.674 C 195.350 159.510,195.463 159.375,195.703 159.375 C 195.957 159.375,196.010 159.171,195.831 158.887 C 195.286 158.027,195.266 153.125,195.807 153.126 C 196.154 153.126,196.239 152.497,196.109 150.879 L 195.929 148.633 195.650 150.586 C 195.322 152.880,195.582 98.338,195.959 85.660 C 196.101 80.888,196.327 77.051,196.460 77.133 C 196.669 77.262,196.682 75.563,196.477 75.000 C 195.753 73.014,196.685 64.587,197.789 63.128 C 198.468 62.231,199.463 60.845,200.000 60.048 C 200.970 58.609,201.563 58.214,201.563 59.007 C 201.563 59.235,201.739 59.312,201.955 59.178 C 203.140 58.446,229.729 84.507,230.469 87.125 C 230.576 87.505,232.713 90.074,235.216 92.834 C 237.720 95.594,240.587 98.849,241.587 100.068 L 243.406 102.284 242.548 103.965 C 239.600 109.745,232.017 119.264,222.149 129.573 C 219.724 132.107,217.764 134.443,217.795 134.766 C 217.825 135.088,217.877 135.855,217.909 136.471 C 217.963 137.486,218.069 137.567,219.043 137.335 C 219.634 137.193,220.329 137.056,220.588 137.029 C 220.847 137.001,220.981 136.852,220.885 136.697 C 220.789 136.542,221.354 135.924,222.140 135.325 C 222.927 134.725,224.429 133.471,225.480 132.538 C 226.530 131.605,227.582 130.961,227.818 131.106 C 228.061 131.257,228.135 131.192,227.990 130.956 C 227.699 130.486,231.395 127.228,231.781 127.614 C 231.919 127.752,232.031 127.594,232.031 127.264 C 232.031 126.934,232.645 126.245,233.396 125.734 C 234.146 125.223,234.761 124.662,234.763 124.489 C 234.764 124.315,234.941 124.281,235.156 124.414 C 235.371 124.547,235.547 124.488,235.547 124.282 C 235.547 123.905,241.399 118.714,246.083 114.936 C 247.486 113.805,249.189 112.335,249.868 111.669 C 250.631 110.921,251.289 110.573,251.589 110.758 C 251.891 110.945,251.975 110.898,251.811 110.633 C 251.446 110.042,257.361 105.482,258.163 105.735 C 258.599 105.873,258.645 105.828,258.315 105.589 C 257.982 105.348,258.680 104.605,260.644 103.110 C 262.187 101.937,264.246 100.286,265.220 99.441 C 268.004 97.029,280.897 88.651,281.391 88.934 C 281.636 89.073,281.712 89.050,281.560 88.881 C 280.322 87.509,290.928 83.013,295.215 83.093 L 298.828 83.161 298.828 81.792 C 298.828 81.039,298.684 80.511,298.509 80.620 C 298.333 80.729,297.954 80.491,297.667 80.093 C 297.379 79.694,296.908 79.459,296.619 79.570 C 296.330 79.680,296.094 79.576,296.094 79.339 C 296.094 78.744,297.540 78.791,297.808 79.395 C 297.927 79.663,297.985 79.555,297.938 79.153 C 297.844 78.363,297.967 78.275,301.172 76.838 C 303.744 75.685,305.078 75.337,305.078 75.818 C 305.078 76.013,305.506 76.172,306.029 76.172 C 306.552 76.172,307.441 76.347,308.005 76.561 C 308.686 76.820,308.948 76.820,308.788 76.561 C 308.656 76.347,308.704 76.172,308.895 76.172 C 309.087 76.172,309.489 75.711,309.791 75.148 C 310.458 73.901,313.996 72.201,316.083 72.125 C 316.903 72.095,317.575 71.938,317.576 71.777 C 317.577 71.616,317.862 71.484,318.209 71.484 C 318.555 71.484,319.478 71.143,320.259 70.725 C 322.484 69.536,329.336 68.064,338.465 66.816 C 343.960 66.064,342.381 65.820,331.995 65.816 C 324.454 65.814,321.766 65.690,321.548 65.338 C 321.387 65.077,320.823 64.896,320.296 64.937 C 319.194 65.021,305.664 64.202,305.664 64.052 C 305.664 64.022,304.890 63.935,303.944 63.858 C 302.997 63.781,302.118 63.576,301.990 63.402 C 301.863 63.228,301.230 63.037,300.586 62.978 C 299.941 62.918,299.063 62.718,298.633 62.534 C 298.203 62.349,297.110 61.976,296.204 61.705 C 295.196 61.403,294.657 61.045,294.814 60.782 C 294.956 60.545,294.786 60.583,294.437 60.866 C 293.900 61.301,293.678 61.256,292.995 60.573 C 292.551 60.129,292.056 59.797,291.895 59.835 C 291.733 59.873,290.569 59.433,289.307 58.858 C 288.045 58.283,286.916 57.813,286.799 57.813 C 286.681 57.813,286.279 57.536,285.905 57.197 C 285.531 56.859,284.990 56.542,284.702 56.494 C 282.877 56.189,279.161 53.988,277.316 52.121 C 276.164 50.954,275.009 50.000,274.749 50.000 C 274.488 50.000,273.911 49.537,273.466 48.971 C 273.021 48.405,272.656 48.079,272.656 48.247 C 272.656 48.414,272.235 48.097,271.721 47.542 C 271.206 46.987,270.693 46.625,270.580 46.737 C 270.258 47.060,269.526 45.451,269.838 45.106 C 269.992 44.936,269.896 44.924,269.625 45.080 C 269.311 45.261,268.155 44.375,266.436 42.635 C 264.953 41.134,263.636 40.010,263.510 40.136 C 263.384 40.262,263.281 40.198,263.281 39.995 C 263.281 39.792,261.953 38.225,260.329 36.512 C 257.379 33.400,256.007 31.598,257.090 32.259 C 257.380 32.435,256.019 30.973,254.065 29.008 C 249.489 24.407,247.125 23.762,245.867 26.772 C 245.556 27.516,245.133 28.125,244.927 28.125 C 244.720 28.125,244.285 28.640,243.960 29.269 C 243.428 30.297,242.085 31.142,241.309 30.937 C 241.147 30.894,241.016 31.064,241.016 31.315 C 241.016 31.566,240.913 31.668,240.788 31.543 C 240.548 31.303,234.445 33.740,231.690 35.176 C 230.800 35.640,229.825 35.924,229.522 35.808 C 229.219 35.691,228.870 35.860,228.746 36.182 C 228.622 36.505,228.373 36.677,228.192 36.565 C 228.011 36.453,226.785 36.871,225.469 37.493 C 224.152 38.116,221.833 39.073,220.316 39.621 C 218.798 40.168,216.298 41.152,214.760 41.806 C 213.222 42.461,211.723 42.904,211.430 42.792 C 211.137 42.679,210.992 42.740,211.107 42.928 C 211.399 43.399,206.802 45.068,206.214 44.705 C 205.944 44.538,205.839 44.573,205.971 44.787 C 206.099 44.994,204.852 45.830,203.200 46.645 C 201.547 47.460,197.587 49.514,194.398 51.210 C 190.155 53.468,188.150 54.321,186.918 54.393 C 185.993 54.448,185.296 54.591,185.369 54.713 C 185.443 54.834,184.360 55.305,182.963 55.759 C 180.213 56.653,179.377 56.299,180.522 54.727 C 182.595 51.884,185.655 48.458,185.956 48.645 C 186.156 48.768,186.223 48.619,186.106 48.313 C 185.836 47.609,187.044 47.115,187.701 47.661 C 188.251 48.118,190.234 47.421,190.234 46.771 C 190.234 46.567,190.537 46.517,190.906 46.659 C 191.275 46.800,191.464 46.803,191.325 46.664 C 190.994 46.332,192.972 44.650,195.898 42.773 C 197.188 41.946,198.638 40.918,199.121 40.488 C 199.604 40.059,200.000 39.840,200.000 40.001 C 200.000 40.162,200.541 39.754,201.202 39.093 C 201.863 38.431,202.742 37.891,203.155 37.891 C 203.568 37.891,203.906 37.686,203.906 37.435 C 203.906 37.184,204.005 37.078,204.126 37.199 C 204.246 37.319,204.796 37.000,205.347 36.490 C 205.898 35.979,206.484 35.645,206.649 35.747 C 206.814 35.849,207.034 35.713,207.137 35.444 C 207.240 35.175,208.972 34.094,210.986 33.041 C 213.001 31.988,215.088 30.825,215.625 30.458 C 217.363 29.269,218.509 29.075,218.264 30.010 C 218.094 30.660,218.176 30.747,218.695 30.469 C 219.048 30.280,219.813 30.025,220.396 29.903 C 221.108 29.753,221.775 29.136,222.427 28.023 C 223.322 26.498,224.800 25.405,226.758 24.821 C 228.780 24.217,230.112 22.112,228.125 22.661 M232.408 23.259 C 231.861 23.918,232.525 25.046,233.099 24.432 C 233.264 24.256,233.171 24.031,232.894 23.932 C 232.506 23.794,232.495 23.625,232.844 23.204 C 233.094 22.903,233.211 22.656,233.103 22.656 C 232.996 22.656,232.683 22.927,232.408 23.259 M188.867 35.966 C 188.223 36.380,187.437 36.622,187.121 36.503 C 186.806 36.384,186.660 36.399,186.797 36.536 C 186.934 36.674,186.489 37.293,185.808 37.913 C 183.615 39.909,187.557 38.474,189.941 36.409 C 191.417 35.130,190.656 34.817,188.867 35.966 M170.196 54.934 C 170.060 55.070,170.134 55.526,170.360 55.948 C 170.716 56.614,170.667 56.682,169.984 56.465 C 169.463 56.300,169.076 56.436,168.833 56.869 C 168.602 57.282,168.373 57.370,168.211 57.107 C 167.974 56.723,169.648 54.688,170.200 54.688 C 170.334 54.688,170.332 54.799,170.196 54.934 M124.691 76.784 C 123.800 77.408,123.512 78.516,124.242 78.516 C 124.469 78.516,124.539 78.704,124.396 78.935 C 124.254 79.166,124.509 79.122,124.963 78.838 C 125.917 78.243,126.408 77.033,125.902 76.527 C 125.699 76.324,125.195 76.430,124.691 76.784 M162.549 101.270 C 162.630 114.214,162.695 131.792,162.695 140.332 C 162.695 148.872,162.827 155.860,162.988 155.859 C 163.388 155.859,163.177 156.769,162.695 157.123 C 162.460 157.296,162.518 157.412,162.841 157.416 C 163.285 157.421,163.289 157.528,162.866 158.038 C 162.469 158.515,162.461 158.719,162.829 158.946 C 163.195 159.173,163.279 164.948,163.195 184.210 L 163.086 209.180 162.017 211.328 C 161.430 212.510,160.102 214.428,159.067 215.591 L 157.185 217.705 156.489 213.638 C 156.106 211.401,155.528 208.961,155.206 208.215 C 154.883 207.470,154.459 205.976,154.265 204.895 C 154.070 203.814,153.751 202.139,153.556 201.172 C 152.262 194.763,151.416 136.041,152.357 117.969 C 153.013 105.377,154.413 97.337,157.447 88.728 C 158.453 85.874,162.062 77.734,162.321 77.734 C 162.366 77.734,162.469 88.325,162.549 101.270 M291.992 83.594 C 291.859 83.809,292.123 83.984,292.578 83.984 C 293.033 83.984,293.297 83.809,293.164 83.594 C 293.031 83.379,292.768 83.203,292.578 83.203 C 292.389 83.203,292.125 83.379,291.992 83.594 M117.206 84.941 C 116.704 85.476,116.115 85.804,115.898 85.670 C 115.682 85.536,115.616 85.608,115.753 85.829 C 115.890 86.051,114.847 87.440,113.434 88.917 C 112.022 90.393,110.154 92.480,109.283 93.555 C 108.412 94.629,107.537 95.460,107.337 95.400 C 107.137 95.341,107.079 95.465,107.209 95.674 C 107.338 95.884,107.002 96.548,106.460 97.149 C 105.919 97.750,104.828 99.244,104.035 100.468 C 103.243 101.692,102.423 102.588,102.213 102.458 C 102.004 102.329,101.949 102.412,102.092 102.644 C 102.235 102.875,101.333 104.704,100.086 106.708 C 97.127 111.467,95.303 114.825,93.930 118.042 C 93.317 119.479,92.647 120.551,92.441 120.423 C 92.235 120.296,92.179 120.373,92.315 120.594 C 92.690 121.200,91.406 124.655,90.918 124.354 C 90.691 124.213,90.612 124.272,90.743 124.485 C 91.035 124.956,90.217 127.769,89.853 127.545 C 89.711 127.457,89.663 127.947,89.747 128.634 C 89.870 129.644,89.812 129.771,89.444 129.297 C 89.057 128.799,89.024 128.819,89.221 129.426 C 89.349 129.820,89.453 130.216,89.453 130.305 C 89.453 130.395,89.786 130.469,90.193 130.469 C 90.763 130.469,91.264 129.637,92.369 126.855 C 94.552 121.360,98.119 114.061,98.504 114.299 C 98.693 114.416,98.799 114.342,98.740 114.136 C 98.594 113.625,101.176 109.375,101.633 109.375 C 101.835 109.375,101.890 109.198,101.756 108.982 C 101.622 108.765,101.758 108.494,102.059 108.379 C 102.359 108.264,102.604 107.954,102.604 107.690 C 102.604 106.995,104.719 103.906,105.195 103.906 C 105.417 103.906,105.483 103.790,105.340 103.648 C 105.051 103.359,106.712 100.973,107.971 99.868 C 108.421 99.474,108.529 99.289,108.211 99.459 C 107.878 99.636,108.008 99.277,108.515 98.614 C 109.000 97.980,109.978 96.582,110.687 95.508 C 111.396 94.434,112.939 92.588,114.117 91.406 C 115.294 90.225,116.742 88.595,117.334 87.786 C 117.926 86.976,118.537 86.392,118.691 86.487 C 118.846 86.583,118.966 86.117,118.959 85.453 C 118.941 83.896,118.350 83.723,117.206 84.941 M85.352 128.794 C 84.922 128.898,84.395 129.150,84.180 129.354 C 83.763 129.751,83.621 134.013,84.033 133.759 C 84.458 133.497,85.651 138.359,85.939 141.526 C 86.200 144.396,86.951 146.207,87.387 145.017 C 87.486 144.747,87.755 144.643,87.984 144.784 C 88.214 144.926,88.297 144.873,88.169 144.666 C 88.041 144.458,87.895 143.385,87.844 142.281 C 87.794 141.177,87.624 140.353,87.466 140.451 C 86.943 140.774,86.638 137.498,86.905 134.448 C 87.086 132.396,87.016 131.074,86.686 130.273 C 86.420 129.629,86.230 128.970,86.265 128.809 C 86.300 128.647,86.284 128.536,86.230 128.561 C 86.177 128.586,85.781 128.691,85.352 128.794 M84.336 154.769 C 83.784 155.145,83.776 155.324,84.267 156.308 C 84.846 157.468,85.328 157.701,85.746 157.025 C 85.881 156.807,86.139 156.719,86.319 156.830 C 86.499 156.941,86.457 156.417,86.226 155.665 C 85.789 154.241,85.389 154.051,84.336 154.769 M105.064 164.160 C 105.039 165.073,105.118 166.611,105.239 167.578 C 105.360 168.545,105.737 173.818,106.076 179.297 C 106.415 184.775,106.751 189.622,106.823 190.066 C 106.895 190.511,107.073 192.093,107.218 193.582 C 107.364 195.071,107.732 197.551,108.036 199.094 C 108.340 200.637,108.562 202.307,108.529 202.805 C 108.495 203.303,108.783 204.854,109.167 206.250 C 110.191 209.972,110.351 211.104,109.802 210.765 C 109.548 210.608,109.446 210.103,109.573 209.635 C 109.766 208.927,109.736 208.895,109.393 209.439 C 108.897 210.226,109.252 211.328,110.003 211.328 C 110.347 211.328,110.547 211.759,110.547 212.500 C 110.547 213.145,110.463 213.672,110.361 213.672 C 109.988 213.672,108.570 210.120,108.797 209.753 C 108.925 209.545,108.880 209.375,108.695 209.375 C 108.198 209.375,107.328 206.718,107.653 206.192 C 107.816 205.928,107.763 205.844,107.527 205.990 C 107.303 206.128,107.031 205.936,106.923 205.562 C 104.300 196.512,102.459 188.001,102.884 186.892 C 103.017 186.546,102.951 186.390,102.730 186.526 C 102.518 186.657,102.339 186.623,102.334 186.449 C 102.328 186.275,102.154 184.390,101.947 182.259 C 101.513 177.792,102.208 170.645,103.574 165.527 C 104.463 162.197,105.135 161.581,105.064 164.160 M78.656 186.095 C 78.675 186.331,78.552 187.406,78.383 188.485 C 78.041 190.672,78.514 192.452,79.543 192.847 C 80.325 193.147,81.250 192.026,81.250 190.778 C 81.250 190.300,81.399 189.850,81.582 189.779 C 82.515 189.413,81.047 186.158,79.839 185.914 C 79.061 185.756,78.635 185.822,78.656 186.095 M297.211 194.336 C 297.118 194.766,297.312 195.351,297.642 195.637 C 298.174 196.099,298.165 196.133,297.559 195.943 C 296.915 195.740,296.873 196.681,296.843 211.829 C 296.825 220.684,296.732 228.457,296.635 229.102 L 296.459 230.273 297.185 229.196 C 297.584 228.604,297.985 228.193,298.076 228.285 C 298.168 228.376,298.194 221.237,298.136 212.420 C 298.055 200.138,298.143 196.241,298.514 195.754 C 298.780 195.404,298.838 195.253,298.643 195.419 C 298.448 195.586,298.084 195.234,297.835 194.638 C 297.433 193.679,297.361 193.644,297.211 194.336 M112.276 218.359 C 112.458 219.038,112.427 219.157,112.175 218.750 C 111.976 218.428,111.696 217.725,111.552 217.188 C 111.370 216.509,111.401 216.390,111.653 216.797 C 111.852 217.119,112.132 217.822,112.276 218.359 M135.706 264.063 C 136.124 264.928,136.166 265.181,135.820 264.752 C 135.520 264.380,135.170 264.179,135.043 264.306 C 134.809 264.540,133.594 261.959,133.594 261.228 C 133.594 260.661,134.928 262.452,135.706 264.063 M154.217 272.572 C 154.433 272.511,154.637 272.637,154.672 272.852 C 154.706 273.066,155.075 273.368,155.492 273.523 C 155.909 273.677,156.250 274.072,156.250 274.401 C 156.250 274.731,156.436 275.000,156.664 275.000 C 156.891 275.000,156.977 274.837,156.854 274.638 C 156.730 274.439,157.614 275.222,158.818 276.378 C 160.097 277.607,160.891 278.665,160.731 278.925 C 160.552 279.214,159.868 278.793,158.784 277.729 C 157.865 276.827,157.006 276.108,156.877 276.130 C 156.182 276.252,155.848 276.065,154.748 274.940 C 154.085 274.263,153.624 273.578,153.723 273.419 C 153.821 273.259,153.639 273.028,153.318 272.905 C 152.997 272.782,152.734 272.478,152.734 272.230 C 152.734 271.890,152.868 271.891,153.279 272.232 C 153.579 272.480,154.001 272.634,154.217 272.572 M146.484 273.842 C 146.484 274.049,146.221 274.219,145.898 274.219 C 145.576 274.219,145.313 274.145,145.313 274.055 C 145.313 273.966,145.198 273.594,145.058 273.229 C 144.838 272.656,144.918 272.627,145.644 273.015 C 146.106 273.263,146.484 273.635,146.484 273.842 M177.785 284.791 C 179.090 285.450,180.069 286.077,179.962 286.184 C 179.751 286.395,175.000 284.097,175.000 283.783 C 175.000 283.440,175.386 283.580,177.785 284.791 M235.435 310.645 C 235.445 310.913,235.567 311.402,235.704 311.730 C 235.842 312.058,235.677 312.674,235.339 313.097 C 234.741 313.845,234.735 313.842,235.144 312.997 C 235.493 312.275,235.464 312.166,234.970 312.355 C 234.643 312.481,234.375 312.828,234.375 313.127 C 234.375 314.228,229.246 318.750,227.997 318.750 C 227.772 318.750,228.087 318.229,228.698 317.592 C 229.308 316.955,229.938 316.515,230.097 316.613 C 230.256 316.712,230.491 316.521,230.619 316.188 C 230.751 315.843,230.685 315.686,230.464 315.823 C 229.736 316.273,230.079 315.554,231.117 314.454 C 231.720 313.815,232.416 313.436,232.777 313.550 C 233.277 313.707,233.293 313.670,232.859 313.361 C 232.425 313.052,232.578 312.702,233.640 311.574 C 235.064 310.061,235.406 309.884,235.435 310.645 M194.764 352.507 C 194.815 352.954,194.871 353.452,194.889 353.613 C 194.966 354.300,196.005 353.826,196.419 352.917 C 196.769 352.149,196.761 351.893,196.384 351.777 C 195.282 351.439,194.674 351.712,194.764 352.507 " stroke="none" fill="#fbfbfb" fill-rule="evenodd"></path><path id="path1" d="M227.344 22.283 C 226.916 22.573,227.074 22.609,227.930 22.418 C 229.366 22.097,229.678 21.873,228.678 21.881 C 228.267 21.884,227.666 22.065,227.344 22.283 M184.631 38.214 C 183.791 39.142,183.807 39.845,184.668 39.838 C 185.238 39.833,185.257 39.772,184.781 39.471 C 184.293 39.162,184.316 38.994,184.939 38.305 C 185.340 37.862,185.580 37.500,185.473 37.500 C 185.365 37.500,184.986 37.821,184.631 38.214 M325.688 65.511 C 326.174 65.604,326.877 65.601,327.251 65.503 C 327.624 65.405,327.227 65.329,326.367 65.333 C 325.508 65.337,325.202 65.417,325.688 65.511 M334.766 65.636 C 333.584 65.785,334.771 65.823,337.402 65.719 C 340.923 65.581,342.188 65.653,342.188 65.992 C 342.188 66.245,342.366 66.342,342.584 66.207 C 344.053 65.300,339.864 64.994,334.766 65.636 M338.520 67.117 C 338.411 67.293,338.841 67.361,339.474 67.268 C 340.107 67.175,340.625 67.031,340.625 66.948 C 340.625 66.650,338.714 66.804,338.520 67.117 M336.035 67.457 C 336.411 67.555,337.026 67.555,337.402 67.457 C 337.778 67.359,337.471 67.278,336.719 67.278 C 335.967 67.278,335.659 67.359,336.035 67.457 M124.249 76.402 C 123.050 77.411,122.730 78.274,123.401 78.688 C 123.596 78.809,123.670 78.579,123.565 78.179 C 123.225 76.881,125.300 75.591,126.330 76.459 L 127.148 77.148 126.404 76.270 C 125.498 75.199,125.693 75.187,124.249 76.402 M83.357 129.850 C 83.240 130.154,83.208 130.901,83.285 131.510 C 83.400 132.414,83.461 132.312,83.618 130.957 C 83.815 129.249,83.729 128.881,83.357 129.850 M320.345 142.718 C 320.435 142.796,321.035 142.977,321.680 143.121 C 322.536 143.312,322.694 143.276,322.266 142.987 C 321.738 142.630,319.953 142.380,320.345 142.718 M321.484 145.485 L 319.727 147.457 321.578 145.795 C 322.596 144.880,323.446 144.031,323.466 143.908 C 323.565 143.305,323.096 143.678,321.484 145.485 M77.851 189.453 C 77.851 190.635,77.925 191.118,78.014 190.527 C 78.104 189.937,78.104 188.970,78.014 188.379 C 77.925 187.788,77.851 188.271,77.851 189.453 M78.162 191.992 C 78.079 193.300,80.099 194.099,80.902 193.075 C 81.391 192.451,81.380 192.434,80.787 192.898 C 80.069 193.460,78.759 193.022,78.385 192.094 C 78.276 191.823,78.175 191.777,78.162 191.992 M123.438 326.367 C 122.471 326.885,121.819 327.316,121.988 327.326 C 122.403 327.350,125.391 325.815,125.391 325.578 C 125.391 325.319,125.407 325.313,123.438 326.367 M120.507 327.735 C 120.086 328.417,122.082 328.894,123.600 328.475 C 125.532 327.942,125.353 327.815,122.990 328.042 C 121.544 328.181,121.057 328.110,121.255 327.790 C 121.406 327.544,121.355 327.344,121.140 327.344 C 120.925 327.344,120.640 327.520,120.507 327.735 M212.308 353.903 C 209.349 356.875,208.729 357.334,208.277 356.882 C 207.824 356.429,207.843 356.153,208.396 355.084 C 208.755 354.389,208.881 353.924,208.677 354.050 C 207.680 354.666,207.262 356.730,208.021 357.285 C 208.693 357.776,209.007 357.578,211.529 355.072 C 213.053 353.559,214.422 352.414,214.572 352.527 C 214.721 352.641,214.754 352.616,214.645 352.470 C 214.535 352.325,214.830 351.798,215.299 351.299 C 215.768 350.799,216.074 350.391,215.978 350.391 C 215.882 350.391,214.231 351.971,212.308 353.903 M159.900 365.208 C 159.222 365.621,158.585 365.876,158.484 365.775 C 158.382 365.674,158.195 365.865,158.067 366.199 C 157.807 366.876,159.138 366.320,160.742 365.081 C 161.831 364.240,161.374 364.309,159.900 365.208 M155.762 370.339 C 154.956 370.764,154.297 371.200,154.297 371.306 C 154.297 371.413,155.000 371.142,155.859 370.703 C 156.719 370.265,157.422 369.822,157.422 369.719 C 157.422 369.463,157.419 369.464,155.762 370.339 M149.474 373.678 C 148.432 374.220,147.658 374.742,147.754 374.837 C 147.937 375.020,151.563 373.098,151.563 372.818 C 151.563 372.590,151.572 372.586,149.474 373.678 M144.039 374.365 C 142.163 375.518,141.639 376.063,143.164 375.275 C 144.388 374.642,146.040 373.463,145.703 373.462 C 145.596 373.462,144.847 373.868,144.039 374.365 M145.921 375.598 C 145.504 375.914,145.339 376.172,145.554 376.172 C 145.769 376.172,146.286 375.914,146.703 375.598 C 147.120 375.283,147.285 375.025,147.070 375.025 C 146.855 375.025,146.338 375.283,145.921 375.598 M143.750 376.567 C 141.308 378.162,137.590 378.792,139.459 377.294 L 140.430 376.515 139.135 377.148 C 137.764 377.818,137.647 378.640,138.898 378.818 C 139.311 378.877,140.879 378.319,142.383 377.578 C 143.887 376.837,144.941 376.220,144.727 376.207 C 144.512 376.194,144.072 376.356,143.750 376.567 " stroke="none" fill="#b0b4b2" fill-rule="evenodd"></path><path id="path2" d="M232.229 23.042 C 232.142 23.183,232.414 23.591,232.833 23.950 C 233.556 24.569,233.594 24.556,233.594 23.694 C 233.594 22.854,232.630 22.393,232.229 23.042 M246.387 25.153 C 246.011 25.439,245.703 25.872,245.703 26.117 C 245.703 26.362,246.055 26.211,246.484 25.781 C 247.944 24.322,249.701 24.806,252.726 27.500 C 253.633 28.308,253.828 28.400,253.312 27.775 C 251.090 25.084,248.013 23.919,246.387 25.153 M221.822 28.936 C 221.526 29.382,220.670 29.892,219.919 30.068 C 219.043 30.274,218.860 30.403,219.408 30.429 C 220.785 30.493,222.143 29.810,222.371 28.936 C 222.639 27.912,222.502 27.912,221.822 28.936 M254.688 29.688 C 254.917 30.117,255.302 30.469,255.543 30.469 C 255.784 30.469,255.662 30.117,255.273 29.688 C 254.885 29.258,254.500 28.906,254.418 28.906 C 254.336 28.906,254.458 29.258,254.688 29.688 M216.493 29.946 C 215.789 30.293,215.289 30.653,215.382 30.747 C 215.476 30.840,216.082 30.643,216.730 30.308 C 217.631 29.842,217.953 29.812,218.103 30.182 C 218.216 30.463,218.311 30.379,218.329 29.980 C 218.366 29.145,218.128 29.140,216.493 29.946 M210.840 33.033 C 209.819 33.565,208.984 34.087,208.984 34.194 C 208.984 34.301,209.863 33.943,210.938 33.398 C 212.012 32.854,212.891 32.324,212.891 32.220 C 212.891 31.962,212.926 31.948,210.840 33.033 M256.950 32.617 C 257.172 33.047,257.941 33.925,258.658 34.569 L 259.961 35.741 258.595 34.179 C 257.843 33.320,257.075 32.441,256.887 32.227 C 256.699 32.012,256.727 32.188,256.950 32.617 M185.742 45.151 L 184.570 46.158 185.840 45.318 C 186.538 44.856,187.109 44.402,187.109 44.309 C 187.109 44.017,186.944 44.119,185.742 45.151 M180.640 48.464 C 178.719 49.768,176.797 51.188,176.367 51.619 C 175.938 52.050,177.520 51.056,179.883 49.410 C 184.366 46.287,184.624 46.094,184.318 46.094 C 184.215 46.094,182.560 47.161,180.640 48.464 M170.605 51.888 C 171.406 52.727,171.598 52.705,171.256 51.814 C 171.121 51.461,170.765 51.172,170.466 51.172 C 170.052 51.172,170.085 51.343,170.605 51.888 M164.258 55.749 C 162.754 57.172,162.227 57.794,163.086 57.132 C 164.591 55.972,167.524 53.105,167.166 53.144 C 167.071 53.154,165.762 54.326,164.258 55.749 M160.127 59.222 C 159.606 59.783,158.828 60.387,158.398 60.565 C 157.850 60.792,157.798 60.895,158.224 60.913 C 158.558 60.926,159.427 60.322,160.156 59.570 C 160.885 58.818,161.390 58.203,161.278 58.203 C 161.165 58.203,160.648 58.662,160.127 59.222 M155.831 62.257 C 155.063 62.971,154.098 63.744,153.686 63.975 C 153.273 64.206,153.045 64.504,153.179 64.637 C 153.312 64.771,154.366 64.000,155.519 62.924 C 156.673 61.848,157.529 60.965,157.422 60.963 C 157.314 60.961,156.598 61.543,155.831 62.257 M308.203 64.157 C 308.311 64.267,310.596 64.483,313.281 64.638 C 315.967 64.792,318.067 64.820,317.949 64.698 C 317.830 64.577,315.545 64.361,312.870 64.218 C 310.196 64.075,308.096 64.048,308.203 64.157 M150.561 66.895 L 149.414 68.164 150.779 66.992 C 151.530 66.348,152.219 65.776,152.309 65.723 C 152.400 65.669,152.302 65.625,152.091 65.625 C 151.881 65.625,151.192 66.196,150.561 66.895 M311.621 73.483 C 310.815 73.891,310.156 74.308,310.156 74.409 C 310.156 74.693,312.235 73.747,312.877 73.170 C 313.596 72.524,313.437 72.564,311.621 73.483 M137.906 74.121 C 137.407 74.712,136.716 75.547,136.370 75.977 L 135.742 76.758 136.663 75.977 C 137.563 75.213,139.265 73.047,138.964 73.047 C 138.881 73.047,138.404 73.530,137.906 74.121 M309.257 75.797 C 308.719 76.425,308.265 76.550,307.119 76.388 L 305.664 76.181 306.971 76.588 C 308.306 77.004,310.156 76.303,310.156 75.382 C 310.156 74.838,310.027 74.898,309.257 75.797 M298.828 82.085 L 298.828 83.311 296.191 83.090 C 294.577 82.955,293.933 82.995,294.531 83.193 C 295.068 83.370,296.343 83.533,297.363 83.555 L 299.219 83.594 299.219 82.227 C 299.219 81.475,299.131 80.859,299.023 80.859 C 298.916 80.859,298.828 81.411,298.828 82.085 M118.037 86.770 C 117.537 87.386,117.313 87.891,117.539 87.891 C 117.970 87.891,119.357 86.010,119.096 85.781 C 119.013 85.709,118.536 86.154,118.037 86.770 M113.092 92.468 L 112.406 93.555 113.310 92.687 C 113.807 92.209,114.116 91.720,113.996 91.600 C 113.876 91.480,113.469 91.871,113.092 92.468 M111.477 94.238 C 110.132 96.520,110.045 96.714,110.730 95.898 C 111.523 94.953,112.207 93.750,111.951 93.750 C 111.849 93.750,111.635 93.970,111.477 94.238 M109.320 97.559 C 108.197 98.915,107.721 99.609,107.914 99.609 C 108.022 99.609,108.580 98.994,109.153 98.242 C 110.218 96.847,110.346 96.320,109.320 97.559 M98.732 113.379 C 97.887 114.669,95.557 119.403,95.992 118.945 C 96.197 118.730,97.087 117.192,97.970 115.527 C 99.547 112.556,99.872 111.640,98.732 113.379 M94.985 120.525 C 94.331 121.961,94.456 122.267,95.163 120.962 C 95.494 120.352,95.691 119.780,95.602 119.690 C 95.512 119.601,95.235 119.976,94.985 120.525 M86.719 135.329 C 86.719 136.525,86.941 136.622,87.222 135.547 C 87.335 135.118,87.267 134.668,87.073 134.548 C 86.878 134.427,86.719 134.779,86.719 135.329 M87.956 142.644 C 87.920 143.432,87.789 144.399,87.666 144.792 C 87.454 145.466,87.467 145.467,87.884 144.817 C 88.128 144.438,88.259 143.471,88.175 142.669 L 88.022 141.211 87.956 142.644 M302.637 142.463 C 303.120 142.556,303.911 142.556,304.395 142.463 C 304.878 142.370,304.482 142.294,303.516 142.294 C 302.549 142.294,302.153 142.370,302.637 142.463 M307.324 143.244 C 307.808 143.338,308.599 143.338,309.082 143.244 C 309.565 143.151,309.170 143.075,308.203 143.075 C 307.236 143.075,306.841 143.151,307.324 143.244 M309.570 154.739 C 307.260 156.469,306.955 156.939,309.062 155.521 C 310.072 154.842,311.005 154.113,311.136 153.901 C 311.479 153.346,311.311 153.436,309.570 154.739 M89.565 167.773 C 89.568 168.848,89.644 169.241,89.733 168.647 C 89.823 168.053,89.821 167.174,89.728 166.694 C 89.635 166.213,89.562 166.699,89.565 167.773 M89.174 172.461 C 89.177 173.535,89.253 173.928,89.343 173.334 C 89.433 172.741,89.430 171.862,89.337 171.381 C 89.245 170.901,89.171 171.387,89.174 172.461 M88.797 178.125 C 88.797 179.521,88.868 180.093,88.954 179.395 C 89.041 178.696,89.041 177.554,88.954 176.855 C 88.868 176.157,88.797 176.729,88.797 178.125 M298.145 181.445 C 298.150 182.305,298.230 182.610,298.323 182.124 C 298.417 181.638,298.413 180.935,298.315 180.562 C 298.217 180.188,298.141 180.586,298.145 181.445 M88.427 186.914 C 88.428 189.277,88.493 190.194,88.570 188.951 C 88.648 187.707,88.647 185.774,88.569 184.654 C 88.490 183.534,88.426 184.551,88.427 186.914 M88.770 195.117 C 88.775 195.977,88.855 196.282,88.948 195.796 C 89.042 195.310,89.038 194.607,88.940 194.234 C 88.842 193.860,88.766 194.258,88.770 195.117 M296.348 196.582 C 296.023 200.061,296.150 231.726,296.482 230.078 C 296.768 228.656,297.009 194.141,296.733 194.141 C 296.646 194.141,296.473 195.239,296.348 196.582 M297.532 195.973 C 297.785 196.154,298.068 197.090,298.160 198.053 L 298.326 199.805 298.284 197.882 C 298.255 196.530,298.068 195.913,297.656 195.802 C 297.251 195.692,297.213 195.745,297.532 195.973 M89.161 199.805 C 89.165 200.664,89.245 200.970,89.339 200.484 C 89.432 199.998,89.429 199.295,89.331 198.921 C 89.233 198.548,89.157 198.945,89.161 199.805 M298.216 209.570 C 298.216 214.941,298.271 217.193,298.338 214.574 C 298.406 211.954,298.406 207.560,298.339 204.808 C 298.272 202.056,298.216 204.199,298.216 209.570 M91.523 207.422 C 91.523 208.604,91.597 209.087,91.686 208.496 C 91.776 207.905,91.776 206.938,91.686 206.348 C 91.597 205.757,91.523 206.240,91.523 207.422 M96.516 215.761 C 96.467 216.276,97.762 218.911,98.222 219.232 C 99.104 219.849,99.172 219.483,98.350 218.538 C 97.875 217.992,97.275 217.069,97.017 216.487 C 96.759 215.906,96.534 215.579,96.516 215.761 M100.418 223.242 C 100.418 223.457,100.670 224.072,100.977 224.609 C 101.284 225.146,101.535 225.410,101.535 225.195 C 101.535 224.980,101.284 224.365,100.977 223.828 C 100.670 223.291,100.418 223.027,100.418 223.242 M298.113 234.766 C 298.133 235.781,298.748 237.448,298.762 236.523 C 298.768 236.094,298.622 235.391,298.438 234.961 C 298.232 234.482,298.106 234.407,298.113 234.766 M105.864 235.320 C 105.850 236.423,111.351 244.531,112.113 244.531 C 112.299 244.531,113.606 246.245,115.016 248.340 C 116.426 250.435,118.031 252.676,118.582 253.320 C 119.134 253.965,118.236 252.471,116.588 250.000 C 114.939 247.529,113.102 245.068,112.504 244.531 C 110.968 243.151,108.780 240.191,107.211 237.372 C 106.472 236.046,105.866 235.123,105.864 235.320 M297.267 238.866 C 296.763 239.402,296.425 239.906,296.515 239.986 C 296.606 240.066,297.089 239.627,297.588 239.011 C 298.707 237.632,298.510 237.543,297.267 238.866 M119.872 255.375 C 120.074 255.754,120.640 256.413,121.130 256.840 C 121.858 257.477,121.821 257.352,120.924 256.152 C 119.765 254.602,119.257 254.227,119.872 255.375 M124.601 261.707 C 125.055 262.345,125.626 262.990,125.870 263.141 C 126.114 263.292,125.821 262.770,125.220 261.981 C 123.914 260.269,123.422 260.051,124.601 261.707 M296.433 261.209 C 296.905 262.115,297.596 262.691,297.876 262.410 C 297.968 262.318,297.581 261.817,297.016 261.297 C 296.036 260.396,296.008 260.392,296.433 261.209 M126.885 264.648 C 127.312 265.293,128.310 266.523,129.101 267.383 L 130.540 268.945 129.352 267.383 C 128.699 266.523,127.702 265.293,127.136 264.648 L 126.107 263.477 126.885 264.648 M296.655 265.723 L 295.508 266.992 296.777 265.845 C 297.476 265.214,298.047 264.643,298.047 264.575 C 298.047 264.274,297.725 264.539,296.655 265.723 M294.311 268.622 C 293.710 269.410,293.417 269.932,293.661 269.782 C 294.161 269.473,295.852 267.188,295.581 267.188 C 295.484 267.188,294.913 267.833,294.311 268.622 M131.191 270.230 C 131.673 270.907,132.270 271.586,132.517 271.738 C 132.764 271.891,132.572 271.462,132.090 270.785 C 131.608 270.109,131.011 269.430,130.764 269.277 C 130.517 269.125,130.709 269.553,131.191 270.230 M290.851 272.747 C 289.867 273.871,289.063 274.940,289.063 275.121 C 289.063 275.302,289.534 274.866,290.111 274.151 C 290.687 273.436,291.599 272.368,292.137 271.777 C 292.675 271.187,293.008 270.703,292.877 270.703 C 292.746 270.703,291.834 271.623,290.851 272.747 M138.367 274.647 C 139.302 276.325,142.452 280.078,142.927 280.078 C 143.079 280.078,142.394 279.215,141.404 278.161 C 140.414 277.107,139.280 275.525,138.883 274.646 C 138.487 273.766,138.008 273.047,137.820 273.047 C 137.631 273.047,137.877 273.767,138.367 274.647 M286.270 278.223 C 285.121 279.565,284.494 280.418,284.876 280.118 C 285.705 279.467,288.828 275.781,288.552 275.781 C 288.445 275.781,287.419 276.880,286.270 278.223 M139.445 281.238 C 139.899 281.876,140.470 282.522,140.714 282.672 C 140.958 282.823,140.665 282.301,140.064 281.512 C 138.758 279.800,138.266 279.582,139.445 281.238 M282.593 282.520 L 281.445 283.789 282.715 282.642 C 283.413 282.011,283.984 281.439,283.984 281.372 C 283.984 281.070,283.662 281.336,282.593 282.520 M145.313 284.147 C 145.313 284.666,145.093 285.180,144.824 285.288 C 144.533 285.406,144.611 285.498,145.020 285.516 C 145.526 285.539,145.703 285.242,145.703 284.375 C 145.703 283.730,145.615 283.203,145.508 283.203 C 145.400 283.203,145.313 283.628,145.313 284.147 M280.057 285.449 L 278.711 286.914 280.176 285.568 C 280.981 284.828,281.641 284.168,281.641 284.103 C 281.641 283.805,281.310 284.086,280.057 285.449 M276.733 289.160 L 275.586 290.430 276.855 289.282 C 277.554 288.651,278.125 288.080,278.125 288.013 C 278.125 287.711,277.803 287.977,276.733 289.160 M273.608 292.676 L 272.461 293.945 273.730 292.798 C 274.429 292.167,275.000 291.596,275.000 291.528 C 275.000 291.227,274.678 291.492,273.608 292.676 M269.311 297.363 L 268.164 298.633 269.434 297.486 C 270.132 296.854,270.703 296.283,270.703 296.216 C 270.703 295.914,270.381 296.180,269.311 297.363 M264.636 302.441 L 262.305 304.883 264.746 302.551 C 266.089 301.269,267.188 300.170,267.188 300.110 C 267.188 299.821,266.802 300.174,264.636 302.441 M231.733 311.003 C 229.744 312.967,228.162 314.618,228.218 314.672 C 228.274 314.726,230.037 313.117,232.136 311.096 C 234.235 309.075,235.817 307.424,235.652 307.427 C 235.487 307.430,233.723 309.039,231.733 311.003 M257.160 310.308 C 256.122 311.465,252.637 315.223,249.414 318.658 C 243.588 324.867,243.584 324.873,248.744 319.580 C 254.590 313.585,259.561 308.203,259.252 308.203 C 259.139 308.203,258.198 309.150,257.160 310.308 M155.762 309.989 C 154.301 310.781,154.390 311.111,155.859 310.352 C 156.504 310.018,157.031 309.662,157.031 309.560 C 157.031 309.309,156.989 309.323,155.762 309.989 M149.609 317.188 C 148.857 317.599,148.418 317.936,148.633 317.936 C 148.848 317.936,149.639 317.599,150.391 317.188 C 151.143 316.776,151.582 316.439,151.367 316.439 C 151.152 316.439,150.361 316.776,149.609 317.188 M241.372 327.051 C 240.734 327.983,240.701 328.113,241.248 327.539 C 241.657 327.109,242.246 326.538,242.555 326.270 C 242.886 325.982,242.938 325.781,242.679 325.781 C 242.438 325.781,241.850 326.353,241.372 327.051 M235.151 333.014 C 234.425 333.762,233.967 334.375,234.133 334.375 C 234.553 334.375,236.853 332.036,236.642 331.824 C 236.547 331.730,235.876 332.265,235.151 333.014 M228.983 337.616 C 228.296 338.325,227.734 339.028,227.734 339.179 C 227.734 339.454,228.458 338.769,229.846 337.180 C 230.996 335.863,230.381 336.174,228.983 337.616 M219.117 342.871 C 216.350 345.863,215.484 346.875,215.690 346.875 C 215.807 346.875,216.995 345.645,218.332 344.141 C 220.877 341.278,221.454 340.343,219.117 342.871 M186.133 347.886 L 184.961 348.893 186.230 348.053 C 186.929 347.590,187.500 347.137,187.500 347.044 C 187.500 346.751,187.335 346.853,186.133 347.886 M195.215 348.270 C 193.755 349.063,193.843 349.393,195.313 348.633 C 195.957 348.300,196.484 347.943,196.484 347.842 C 196.484 347.590,196.442 347.604,195.215 348.270 M211.348 351.347 L 209.609 353.320 211.524 351.479 C 212.577 350.466,213.359 349.577,213.262 349.505 C 213.165 349.432,212.304 350.261,211.348 351.347 M212.879 353.027 L 210.352 355.664 212.988 353.136 C 215.437 350.788,215.804 350.391,215.516 350.391 C 215.456 350.391,214.270 351.577,212.879 353.027 M189.746 351.395 C 188.286 352.188,188.375 352.518,189.844 351.758 C 190.488 351.425,191.016 351.068,191.016 350.967 C 191.016 350.715,190.974 350.729,189.746 351.395 " stroke="none" fill="#d1d4d4" fill-rule="evenodd"></path><path id="path3" d="" stroke="none" fill="#cccccc" fill-rule="evenodd"></path><path id="path4" d="M229.473 22.193 C 229.640 22.487,229.462 23.070,229.057 23.560 C 228.365 24.395,228.370 24.395,229.296 23.539 C 230.086 22.810,230.155 22.583,229.713 22.172 C 229.284 21.774,229.238 21.778,229.473 22.193 M329.206 65.908 C 329.908 65.995,330.963 65.993,331.550 65.904 C 332.137 65.815,331.563 65.744,330.273 65.746 C 328.984 65.748,328.504 65.821,329.206 65.908 M125.729 78.140 C 125.163 78.776,124.828 79.297,124.984 79.297 C 125.286 79.297,126.255 78.262,126.721 77.441 C 127.163 76.665,126.837 76.894,125.729 78.140 M217.166 349.121 L 215.820 350.586 217.285 349.240 C 218.649 347.987,218.930 347.656,218.631 347.656 C 218.566 347.656,217.907 348.315,217.166 349.121 " stroke="none" fill="#c4c4c4" fill-rule="evenodd"></path></g></svg>